<?xml version="1.0" encoding="UTF-8"?>
<svg id="Livello_1" xmlns="http://www.w3.org/2000/svg" version="1.1" viewBox="0 0 600 200">
  <!-- Generator: Adobe Illustrator 29.2.1, SVG Export Plug-In . SVG Version: 2.1.0 Build 116)  -->
  <defs>
    <style>
      .st0 {
        fill: #fff;
      }
    </style>
  </defs>
  <path class="st0" d="M89.09,104.68h-31.94v-16.77h31.94c5.56,0,10.06-.9,13.48-2.7,3.43-1.8,5.94-4.28,7.54-7.46,1.6-3.17,2.4-6.81,2.4-10.91,0-3.88-.8-7.51-2.4-10.91-1.6-3.4-4.12-6.14-7.54-8.22-3.43-2.08-7.92-3.12-13.48-3.12h-25.45v105.85h-21.15V27.74h46.6c9.49,0,17.57,1.67,24.23,5.01,6.66,3.34,11.73,7.95,15.21,13.82,3.48,5.87,5.23,12.57,5.23,20.1,0,7.92-1.74,14.72-5.23,20.39-3.48,5.68-8.55,10.03-15.21,13.06-6.66,3.03-14.73,4.55-24.23,4.55Z"/>
  <path class="st0" d="M204.09,44.09l-36.66,106.35h-22.16l46.18-122.7h14.16l-1.52,16.35ZM232.99,104.93v16.77h-66.74v-16.77h66.74ZM234.76,150.44l-36.74-106.35-1.6-16.35h14.24l46.35,122.7h-22.25Z"/>
  <path class="st0" d="M287.32,27.74h43.4c9.33,0,17.28,1.4,23.85,4.21,6.57,2.81,11.62,6.95,15.13,12.43,3.51,5.48,5.27,12.23,5.27,20.27,0,6.12-1.12,11.52-3.37,16.18-2.25,4.66-5.42,8.58-9.52,11.76-4.1,3.18-8.99,5.63-14.66,7.37l-6.41,3.12h-39.02l-.17-16.77h29.24c5.06,0,9.27-.9,12.64-2.7,3.37-1.8,5.91-4.26,7.63-7.37s2.57-6.64,2.57-10.58c0-4.27-.83-7.99-2.49-11.17-1.66-3.17-4.2-5.62-7.63-7.33-3.43-1.71-7.78-2.57-13.06-2.57h-22.25v105.85h-21.15V27.74ZM357.35,150.44l-28.82-55.11,22.16-.08,29.24,54.1v1.1h-22.58Z"/>
  <path class="st0" d="M435.1,27.74v122.7h-21.15V27.74h21.15Z"/>
  <path class="st0" d="M542.51,118.83c0-2.53-.38-4.77-1.14-6.74-.76-1.97-2.09-3.76-4-5.39-1.91-1.63-4.59-3.22-8.05-4.76-3.46-1.54-7.85-3.13-13.19-4.76-5.84-1.8-11.22-3.81-16.14-6.03-4.92-2.22-9.2-4.8-12.85-7.75-3.65-2.95-6.49-6.35-8.51-10.2-2.02-3.85-3.03-8.3-3.03-13.36s1.05-9.55,3.16-13.65c2.11-4.1,5.11-7.65,9.02-10.66,3.9-3,8.52-5.34,13.86-6.99,5.34-1.66,11.24-2.49,17.7-2.49,9.1,0,16.95,1.69,23.55,5.06,6.6,3.37,11.68,7.89,15.25,13.57,3.57,5.68,5.35,11.94,5.35,18.79h-20.98c0-4.05-.86-7.63-2.57-10.75-1.71-3.12-4.3-5.57-7.75-7.37-3.46-1.8-7.82-2.7-13.1-2.7-5,0-9.16.76-12.47,2.28-3.32,1.52-5.79,3.57-7.42,6.15-1.63,2.58-2.44,5.51-2.44,8.76,0,2.3.53,4.4,1.6,6.28,1.07,1.88,2.7,3.62,4.89,5.23s4.94,3.1,8.26,4.51c3.31,1.41,7.22,2.75,11.71,4.05,6.8,2.02,12.72,4.26,17.78,6.7,5.06,2.44,9.27,5.21,12.64,8.3,3.37,3.09,5.9,6.59,7.58,10.49,1.69,3.91,2.53,8.33,2.53,13.27s-1.04,9.82-3.12,13.95c-2.08,4.13-5.04,7.64-8.89,10.53-3.85,2.89-8.46,5.11-13.82,6.66-5.37,1.54-11.33,2.32-17.91,2.32-5.9,0-11.7-.79-17.4-2.36-5.7-1.57-10.89-3.97-15.55-7.21-4.66-3.23-8.37-7.27-11.12-12.13-2.75-4.86-4.13-10.55-4.13-17.07h21.15c0,3.99.69,7.39,2.06,10.2,1.38,2.81,3.3,5.1,5.77,6.87,2.47,1.77,5.35,3.08,8.64,3.92,3.29.84,6.81,1.26,10.58,1.26,4.94,0,9.09-.7,12.43-2.11,3.34-1.4,5.86-3.37,7.54-5.9,1.68-2.53,2.53-5.45,2.53-8.76Z"/>
</svg>