<?xml version="1.0" encoding="UTF-8"?>
<svg id="Livello_1" xmlns="http://www.w3.org/2000/svg" version="1.1" viewBox="0 0 600 300">
  <!-- Generator: Adobe Illustrator 29.2.1, SVG Export Plug-In . SVG Version: 2.1.0 Build 116)  -->
  <defs>
    <style>
      .st0 {
        fill: #fff;
      }
    </style>
  </defs>
  <path class="st0" d="M91.13,266.18c-1.18,0-2.31-.29-3.39-.88-4.71-2.36-8.27-5.15-10.68-8.39s-3.61-9.08-3.61-17.52c0-2.65.1-5.64.29-8.98.59-7.66,1.37-13.55,2.36-17.67s1.87-7.17,2.65-9.13,1.18-3.73,1.18-5.3c0-1.87-.79-4.17-2.36-6.92-1.87-3.83-2.8-7.61-2.8-11.34,0-12.27,8.83-26.65,26.5-43.14,2.45-2.26,3.93-3.78,4.42-4.56,18.46-38.09,30.92-57.13,37.4-57.13,1.57,0,3.29,1.33,5.15,3.98.98,1.47,2.16,2.58,3.53,3.31s2.06,1.5,2.06,2.28c0,.69-.59,1.72-1.77,3.09-1.96,2.55-3.34,4.86-4.12,6.92-1.08,2.45-2.09,3.83-3.02,4.12s-2.33,1.87-4.2,4.71c-5.4,8.15-9.13,14.53-11.19,19.14,0,.29.49.44,1.47.44s1.91.1,2.8.29c2.65.59,5.15,2.9,7.51,6.92.2.29.29.59.29.88,0,.69-.98,1.18-2.94,1.47-5.69,1.37-11.83,4.32-18.41,8.83-2.65,2.65-7.76,14.14-15.31,34.46-3.44,9.13-5.55,15.07-6.33,17.82,0,.69.49,1.03,1.47,1.03,13.45-1.37,27.58-6.58,42.41-15.61,14.14-8.64,27.34-19.27,39.61-31.88,12.27-12.61,22.31-25.74,30.11-39.39s11.71-26.01,11.71-37.11c0-15.41-8.3-25.42-24.89-30.04-7.76-2.06-15.66-3.09-23.71-3.09-12.66,0-25.28,2.11-37.84,6.33-12.57,4.22-24.42,9.67-35.56,16.34-11.14,6.68-21.01,13.79-29.6,21.35s-15.36,14.85-20.32,21.87c-4.96,7.02-7.44,12.84-7.44,17.45,0,3.53,1.62,6.09,4.86,7.66,8.54,3.83,12.81,6.72,12.81,8.69,0,.69-.69,1.03-2.06,1.03-2.06,0-4.96-.91-8.69-2.72-3.73-1.82-7.09-4.64-10.09-8.47s-4.49-8.79-4.49-14.87c0-8.64,3.78-18.36,11.34-29.16,7.66-10.5,16.88-19.44,27.68-26.8,14.23-9.91,29.97-18.01,47.19-24.3,17.23-6.28,33.6-9.42,49.11-9.42,23.76,0,40.4,8,49.92,24,.29.49.83,1.23,1.62,2.21,7.56,9.33,11.34,19.88,11.34,31.66,0,18.46-9.42,39.76-28.27,63.91-13.55,17.38-29.4,32.25-47.56,44.62-20.52,13.84-37.4,20.76-50.65,20.76-2.75,0-5.06-.15-6.92-.44-1.28-.2-2.36-.29-3.24-.29-2.06,0-3.63,1.01-4.71,3.02s-2.21,6.31-3.39,12.88c-1.47,7.95-2.21,14.23-2.21,18.85,0,7.85,1.82,13.01,5.45,15.46,1.18.98,1.77,1.91,1.77,2.8-.59,2.65-2.01,3.98-4.27,3.98Z"/>
  <path class="st0" d="M281.37,219.21c-5.2,0-11.29-3.83-18.26-11.49-2.36-2.65-3.93-6.43-4.71-11.34-.49.1-1.52,1.08-3.09,2.94-6.18,7.46-11.83,11.19-16.93,11.19-1.67,0-3.34-.49-5.01-1.47-8.54-5.6-12.81-13.45-12.81-23.56,0-6.58,1.57-13.15,4.71-19.73,3.14-6.58,6.97-12.37,11.49-17.38,7.36-8.15,14.04-12.22,20.03-12.22,2.45,0,4.42.61,5.89,1.84s2.8,2.63,3.98,4.2c1.57,2.16,3.34,3.71,5.3,4.64s3.09,2.38,3.39,4.34c0,1.28.52,2.26,1.55,2.94s1.69,1.35,1.99,1.99.44,1.47.44,2.5.07,1.69.22,1.99.52.54,1.1.74c1.08.49,1.62,1.28,1.62,2.36,0,1.77-.83,4.25-2.5,7.44s-3.29,6.92-4.86,11.19-2.36,9.2-2.36,14.8c0,5.89.59,8.83,1.77,8.83.39,0,.93-.25,1.62-.74,4.61-2.55,9.03-5.5,13.25-8.83,6.38-5.5,11.12-10.43,14.21-14.8,3.09-4.37,5.23-7.93,6.41-10.68s2.31-4.12,3.39-4.12c1.47.2,2.21,1.13,2.21,2.8,0,2.85-1.33,6.92-3.98,12.22-7.95,16.59-14.43,27.39-19.44,32.39-3.24,3.34-6.77,5.01-10.6,5.01ZM237.35,193.14c1.18,0,6.63-5.03,16.34-15.09s14.58-16.22,14.58-18.48l-.15-2.36.29-6.63c0-1.57-.49-2.36-1.47-2.36-.59,0-1.52.25-2.8.74-5.89,2.75-10.85,7.02-14.87,12.81-4.02,5.79-7.07,11.63-9.13,17.52-2.06,5.89-3.09,10.01-3.09,12.37,0,.69.1,1.18.29,1.47Z"/>
  <path class="st0" d="M310.38,222.45c-2.55,0-6.09-2.55-10.6-7.66-.49-.59-.74-1.72-.74-3.39,0-4.32,1.33-11.04,3.98-20.17,4.71-16.1,9.28-29.79,13.69-41.08l3.68-10.45c2.45-7.36,4.27-11.04,5.45-11.04,1.08,0,2.45,1.08,4.12,3.24s3.07,3.48,4.2,3.98,2.18.74,3.17.74,2.11.25,3.39.74,2.94,1.77,5.01,3.83c1.28,1.28,2.31,2.14,3.09,2.58s1.42.74,1.91.88.91.34,1.25.59.71.71,1.1,1.4.83,1.79,1.33,3.31,1.15,3.58,1.99,6.18,1.87,5.96,3.09,10.09,2.5,7.34,3.83,9.64,3.31,3.46,5.96,3.46,6.43-1.42,11.34-4.27c1.87-1.18,3.21-2.14,4.05-2.87s1.57-1.28,2.21-1.62,1.25-.52,1.84-.52c.79,0,1.52.29,2.21.88s1.03,1.37,1.03,2.36-.49,2.21-1.47,3.68c-10.11,5.79-18.6,8.69-25.47,8.69-5.4,0-9.57-1.47-12.52-4.42-6.38-6.09-9.57-15.9-9.57-29.45-9.72,15.8-17.28,33.28-22.68,52.42-1.67,5.69-3.19,10.16-4.56,13.4s-3.14,4.86-5.3,4.86Z"/>
  <path class="st0" d="M415.81,211.4c-4.12,0-8.25-1.18-12.37-3.53-12.66-8.05-19-18.7-19-31.95,0-7.07,1.42-13.79,4.27-20.17s5.91-11.58,9.2-15.61,5.57-6.04,6.85-6.04l.44.15,5.89,4.71c2.94,2.36,4.42,3.88,4.42,4.56,0,.98-.69,2.31-2.06,3.98-2.26,2.55-5.64,8.74-10.16,18.55-3.53,8.74-5.3,15.61-5.3,20.61,0,8.05,3.83,12.07,11.49,12.07,7.07,0,15.19-3.04,24.37-9.13,9.18-6.09,15.78-13.01,19.8-20.76.29-.79.64-1.18,1.03-1.18.29,0,.74.25,1.33.74.98.79,1.47,2.01,1.47,3.68,0,2.75-1.18,6.33-3.53,10.75s-5.5,8.79-9.42,13.11-8.37,7.98-13.33,10.97c-4.96,2.99-10.09,4.49-15.39,4.49ZM420.08,127.47c-1.28,0-2.45-.56-3.53-1.69s-1.62-2.97-1.62-5.52c0-2.94,1.08-6.97,3.24-12.07.79-1.67,1.62-2.5,2.5-2.5.79,0,2.11.93,3.98,2.8,1.28,1.47,2.85,2.75,4.71,3.83.88.49,1.33,1.13,1.33,1.91,0,1.47-1.18,3.53-3.53,6.18-1.28,1.57-2.6,3.39-3.98,5.45-.88,1.08-1.91,1.62-3.09,1.62Z"/>
  <path class="st0" d="M470,277.22c-2.06,0-4.02-.69-5.89-2.06-7.56-5.69-11.34-11.14-11.34-16.34,0-6.58,2.9-14.48,8.69-23.71,5.2-8.34,11.78-16.64,19.73-24.89,2.75-2.65,4.12-4.32,4.12-5.01-.29-.39-.83-.59-1.62-.59-7.85-1.08-13.94-2.75-18.26-5.01-4.32-2.26-8.59-6.63-12.81-13.11-1.57-2.45-2.36-5.15-2.36-8.1,0-6.09,2.45-12.86,7.36-20.32,4.91-7.46,10.53-14.43,16.86-20.91,6.33-6.48,11.95-11.53,16.86-15.17,7.36-5.1,12.86-7.66,16.49-7.66,2.26,0,4.05.64,5.37,1.91,1.33,1.28,2.48,2.7,3.46,4.27,1.28,2.16,2.87,3.73,4.79,4.71s2.87,2.8,2.87,5.45c0,4.32-1.87,9.84-5.6,16.57-3.73,6.72-8.2,12.59-13.4,17.6-2.75,2.94-5.3,4.42-7.66,4.42-1.37,0-2.68-.59-3.9-1.77s-2.21-2.31-2.94-3.39-1.1-1.96-1.1-2.65c0-.79,1.08-2.21,3.24-4.27s5.69-6.14,10.6-12.22c5.3-6.77,7.95-11.78,7.95-15.02-8.83,3.93-18.36,11.63-28.57,23.12-10.21,11.49-16.59,21.55-19.14,30.19-.29,1.18-.44,2.11-.44,2.8,0,1.08.61,1.82,1.84,2.21s3.51.88,6.85,1.47c11.78,1.96,18.9,3.78,21.35,5.45.88.49,1.57.74,2.06.74.59,0,1.23-.34,1.91-1.03,10.11-8.34,21.08-15.04,32.91-20.1,11.83-5.06,20.3-7.73,25.4-8.03,1.37,0,2.41.25,3.09.74s1.28,1.08,1.77,1.77,1.03,1.28,1.62,1.77.88.93.88,1.33c0,.49-.39.79-1.18.88-4.02.79-7.76,2.21-11.19,4.27-10.6,5.3-20.42,11.83-29.45,19.58-1.47,1.28-3.68,3.09-6.63,5.45-4.02,3.44-6.04,5.4-6.04,5.89l.15.29c4.61,4.61,6.92,9.62,6.92,15.02s-1.52,10.99-4.56,16.79c-6.28,11.58-14.87,21.4-25.77,29.45-6.58,4.81-11.68,7.22-15.31,7.22ZM467.64,261.03c1.77-.29,4.52-1.99,8.25-5.08,3.73-3.09,7.63-6.92,11.71-11.49s7.58-9.33,10.53-14.28c2.94-4.96,4.42-9.45,4.42-13.47l-.29-2.5c-.98.29-3.9,2.94-8.76,7.95s-9.89,11.09-15.09,18.26c-5.2,7.17-8.79,14.04-10.75,20.61Z"/>
</svg>